# xmcd
#
# Track frame offsets:
#	150
#	29299
#	52614
#	82098
#	96534
#	114012
#	136385
#	165554
#	190759
#	210510
#
# Disc length: 3118 seconds
#
# Revision: 0
# Processed by: cddbd v1.4b42PL1 Copyright (c) Steve Scherf et al.
# Submitted via: EasyCDDAExtractor 4.5.0.1
#
DISCID=790c2c0a
DTITLE=Scorpions - Gold Ballads
DYEAR=1900
DGENRE=Ballad
TTITLE0=Still Loving You
TTITLE1=Winds Of Change(Spanis Version)
TTITLE2=Holiday
TTITLE3=Are You The One
TTITLE4=When The Smoke Is Going Down
TTITLE5=Always Somewhere
TTITLE6=Lady Starlight
TTITLE7=Does Anyone Know
TTITLE8=You And I
TTITLE9=Winds Of Change
EXTD=
EXTT0=
EXTT1=
EXTT2=
EXTT3=
EXTT4=
EXTT5=
EXTT6=
EXTT7=
EXTT8=
EXTT9=
PLAYORDER=
